<svg xmlns="http://www.w3.org/2000/svg" width="48" height="48" viewBox="0 0 48 48">
<defs>
<linearGradient id="bulb-light-s" x1="0.2" y1="0" x2="0.8" y2="1"><stop offset="0" stop-color="#3D5A8C" stop-opacity="1"/><stop offset="0.5" stop-color="#142B5E" stop-opacity="1"/><stop offset="1" stop-color="#0B1B3F" stop-opacity="1"/></linearGradient>
<linearGradient id="bulb-light-f" x1="0" y1="0" x2="0" y2="1"><stop offset="0" stop-color="#FFFFFF" stop-opacity="0.62"/><stop offset="1" stop-color="#FFFFFF" stop-opacity="0.28"/></linearGradient>
<clipPath id="bulb-light-c"><path d="M10 20A14 14 0 1 1 38 20A14 14 0 1 1 10 20Z"/></clipPath>
<filter id="bulb-light-b" x="-30%" y="-30%" width="160%" height="160%"><feGaussianBlur stdDeviation="4"/></filter>
<filter id="bulb-light-d" x="-30%" y="-30%" width="160%" height="170%"><feDropShadow dx="0" dy="6" stdDeviation="3.5" flood-color="#0B1B3F" flood-opacity="0.22"/></filter>
</defs>
<g filter="url(#bulb-light-d)">
<path d="M21.5 30H26.5A3.5 3.5 0 0 1 30 33.5V39.5A3.5 3.5 0 0 1 26.5 43H21.5A3.5 3.5 0 0 1 18 39.5V33.5A3.5 3.5 0 0 1 21.5 30Z" fill="url(#bulb-light-s)"/>
<g clip-path="url(#bulb-light-c)">
<path d="M21.5 30H26.5A3.5 3.5 0 0 1 30 33.5V39.5A3.5 3.5 0 0 1 26.5 43H21.5A3.5 3.5 0 0 1 18 39.5V33.5A3.5 3.5 0 0 1 21.5 30Z" fill="url(#bulb-light-s)" filter="url(#bulb-light-b)" opacity="0.7"/>
<path d="M10 20A14 14 0 1 1 38 20A14 14 0 1 1 10 20Z" fill="url(#bulb-light-f)"/>
</g>
<path d="M10 20A14 14 0 1 1 38 20A14 14 0 1 1 10 20Z" fill="none" stroke="#FFFFFF" stroke-opacity="0.9" stroke-width="0.8"/>
</g>
</svg>
