<svg xmlns="http://www.w3.org/2000/svg" width="48" height="48" viewBox="0 0 48 48">
<defs>
<linearGradient id="practice-light-s" x1="0.2" y1="0" x2="0.8" y2="1"><stop offset="0" stop-color="#3D5A8C" stop-opacity="1"/><stop offset="0.5" stop-color="#142B5E" stop-opacity="1"/><stop offset="1" stop-color="#0B1B3F" stop-opacity="1"/></linearGradient>
<linearGradient id="practice-light-f" x1="0" y1="0" x2="0" y2="1"><stop offset="0" stop-color="#FFFFFF" stop-opacity="0.62"/><stop offset="1" stop-color="#FFFFFF" stop-opacity="0.28"/></linearGradient>
<clipPath id="practice-light-c"><path d="M8.16 21.5Q5 20 8.16 18.5L20.84 12.5Q24 11 27.16 12.5L39.84 18.5Q43 20 39.84 21.5L27.16 27.5Q24 29 20.84 27.5Z"/></clipPath>
<filter id="practice-light-b" x="-30%" y="-30%" width="160%" height="160%"><feGaussianBlur stdDeviation="4"/></filter>
<filter id="practice-light-d" x="-30%" y="-30%" width="160%" height="170%"><feDropShadow dx="0" dy="6" stdDeviation="3.5" flood-color="#0B1B3F" flood-opacity="0.22"/></filter>
</defs>
<g filter="url(#practice-light-d)">
<path d="M8.16 31.5Q5 30 8.16 28.5L20.84 22.5Q24 21 27.16 22.5L39.84 28.5Q43 30 39.84 31.5L27.16 37.5Q24 39 20.84 37.5Z" fill="url(#practice-light-s)"/>
<g clip-path="url(#practice-light-c)">
<path d="M8.16 31.5Q5 30 8.16 28.5L20.84 22.5Q24 21 27.16 22.5L39.84 28.5Q43 30 39.84 31.5L27.16 37.5Q24 39 20.84 37.5Z" fill="url(#practice-light-s)" filter="url(#practice-light-b)" opacity="0.7"/>
<path d="M8.16 21.5Q5 20 8.16 18.5L20.84 12.5Q24 11 27.16 12.5L39.84 18.5Q43 20 39.84 21.5L27.16 27.5Q24 29 20.84 27.5Z" fill="url(#practice-light-f)"/>
</g>
<path d="M8.16 21.5Q5 20 8.16 18.5L20.84 12.5Q24 11 27.16 12.5L39.84 18.5Q43 20 39.84 21.5L27.16 27.5Q24 29 20.84 27.5Z" fill="none" stroke="#FFFFFF" stroke-opacity="0.9" stroke-width="0.8"/>
</g>
</svg>
